<svg width="53" height="53" viewBox="0 0 53 53" fill="none" xmlns="http://www.w3.org/2000/svg">
<path d="M27.7917 17.9999H20.9583C20.5053 17.9999 20.0707 18.1799 19.7504 18.5003C19.43 18.8207 19.25 19.2552 19.25 19.7083V33.3749C19.25 33.828 19.43 34.2625 19.7504 34.5829C20.0707 34.9033 20.5053 35.0833 20.9583 35.0833H31.2083C31.6614 35.0833 32.0959 34.9033 32.4163 34.5829C32.7367 34.2625 32.9167 33.828 32.9167 33.3749V23.1249M27.7917 17.9999L32.9167 23.1249M27.7917 17.9999L27.7917 23.1249H32.9167M29.5 27.3958H22.6667M29.5 30.8124H22.6667M24.375 23.9791H22.6667" stroke="white" stroke-width="2" stroke-linecap="round" stroke-linejoin="round"/>
</svg>
