<svg width="53" height="53" viewBox="0 0 53 53" fill="none" xmlns="http://www.w3.org/2000/svg">
<path d="M31.625 23.3334C31.625 21.9741 31.085 20.6706 30.1239 19.7095C29.1628 18.7483 27.8592 18.2084 26.5 18.2084C25.1408 18.2084 23.8372 18.7483 22.8761 19.7095C21.915 20.6706 21.375 21.9741 21.375 23.3334C21.375 29.3125 18.8125 31.0209 18.8125 31.0209H34.1875C34.1875 31.0209 31.625 29.3125 31.625 23.3334Z" stroke="white" stroke-width="2" stroke-linecap="round" stroke-linejoin="round"/>
<path d="M27.9776 34.4375C27.8275 34.6964 27.6119 34.9113 27.3526 35.0606C27.0932 35.21 26.7992 35.2886 26.4999 35.2886C26.2006 35.2886 25.9066 35.21 25.6473 35.0606C25.3879 34.9113 25.1724 34.6964 25.0222 34.4375" stroke="white" stroke-width="2" stroke-linecap="round" stroke-linejoin="round"/>
</svg>
