<svg viewBox="0 0 53 53" fill="none" xmlns="http://www.w3.org/2000/svg">
<g clip-path="url(#clip0_160_1059)">
<path d="M26.5 29.3125C27.9152 29.3125 29.0625 28.1652 29.0625 26.75C29.0625 25.3348 27.9152 24.1875 26.5 24.1875C25.0848 24.1875 23.9375 25.3348 23.9375 26.75C23.9375 28.1652 25.0848 29.3125 26.5 29.3125Z" stroke="white" stroke-width="2" stroke-linecap="round" stroke-linejoin="round"/>
<path d="M32.8209 29.3125C32.7072 29.5701 32.6733 29.8559 32.7235 30.133C32.7738 30.41 32.9059 30.6657 33.1028 30.867L33.154 30.9183C33.3129 31.0769 33.4389 31.2654 33.5248 31.4727C33.6108 31.6801 33.6551 31.9024 33.6551 32.1269C33.6551 32.3514 33.6108 32.5737 33.5248 32.7811C33.4389 32.9885 33.3129 33.1769 33.154 33.3356C32.9954 33.4944 32.807 33.6204 32.5996 33.7064C32.3922 33.7924 32.1699 33.8366 31.9454 33.8366C31.7209 33.8366 31.4986 33.7924 31.2912 33.7064C31.0838 33.6204 30.8954 33.4944 30.7367 33.3356L30.6855 33.2843C30.4842 33.0874 30.2285 32.9553 29.9514 32.9051C29.6743 32.8548 29.3885 32.8888 29.1309 33.0025C28.8783 33.1107 28.6628 33.2905 28.5111 33.5197C28.3593 33.7489 28.2778 34.0174 28.2767 34.2923V34.4375C28.2767 34.8905 28.0968 35.3251 27.7764 35.6454C27.456 35.9658 27.0215 36.1458 26.5684 36.1458C26.1153 36.1458 25.6808 35.9658 25.3604 35.6454C25.0401 35.3251 24.8601 34.8905 24.8601 34.4375V34.3606C24.8535 34.0779 24.762 33.8037 24.5974 33.5736C24.4329 33.3436 24.203 33.1684 23.9376 33.0708C23.68 32.9571 23.3942 32.9232 23.1171 32.9734C22.84 33.0237 22.5843 33.1557 22.383 33.3527L22.3317 33.4039C22.1731 33.5628 21.9847 33.6888 21.7773 33.7747C21.5699 33.8607 21.3476 33.9049 21.1231 33.9049C20.8986 33.9049 20.6763 33.8607 20.4689 33.7747C20.2615 33.6888 20.0731 33.5628 19.9145 33.4039C19.7556 33.2453 19.6296 33.0568 19.5436 32.8495C19.4577 32.6421 19.4134 32.4198 19.4134 32.1953C19.4134 31.9708 19.4577 31.7485 19.5436 31.5411C19.6296 31.3337 19.7556 31.1453 19.9145 30.9866L19.9657 30.9354C20.1626 30.7341 20.2947 30.4784 20.345 30.2013C20.3952 29.9242 20.3613 29.6384 20.2476 29.3808C20.1393 29.1282 19.9595 28.9127 19.7304 28.7609C19.5012 28.6092 19.2326 28.5277 18.9578 28.5266H18.8126C18.3595 28.5266 17.925 28.3466 17.6046 28.0263C17.2842 27.7059 17.1042 27.2714 17.1042 26.8183C17.1042 26.3652 17.2842 25.9307 17.6046 25.6103C17.925 25.2899 18.3595 25.11 18.8126 25.11H18.8895C19.1722 25.1033 19.4464 25.0118 19.6764 24.8473C19.9064 24.6828 20.0816 24.4529 20.1792 24.1875C20.293 23.9298 20.3269 23.644 20.2766 23.367C20.2264 23.0899 20.0943 22.8342 19.8974 22.6329L19.8461 22.5816C19.6873 22.423 19.5613 22.2346 19.4753 22.0272C19.3893 21.8198 19.3451 21.5975 19.3451 21.373C19.3451 21.1485 19.3893 20.9262 19.4753 20.7188C19.5613 20.5114 19.6873 20.323 19.8461 20.1643C20.0048 20.0055 20.1932 19.8795 20.4006 19.7935C20.608 19.7076 20.8303 19.6633 21.0548 19.6633C21.2793 19.6633 21.5016 19.7076 21.709 19.7935C21.9163 19.8795 22.1048 20.0055 22.2634 20.1643L22.3147 20.2156C22.516 20.4125 22.7717 20.5446 23.0487 20.5948C23.3258 20.6451 23.6116 20.6112 23.8692 20.4975H23.9376C24.1902 20.3892 24.4057 20.2094 24.5574 19.9802C24.7092 19.7511 24.7907 19.4825 24.7917 19.2077V19.0625C24.7917 18.6094 24.9717 18.1749 25.2921 17.8545C25.6125 17.5341 26.047 17.3541 26.5001 17.3541C26.9532 17.3541 27.3877 17.5341 27.7081 17.8545C28.0284 18.1749 28.2084 18.6094 28.2084 19.0625V19.1393C28.2095 19.4142 28.291 19.6827 28.4427 19.9119C28.5945 20.1411 28.8099 20.3208 29.0626 20.4291C29.3202 20.5428 29.606 20.5767 29.8831 20.5265C30.1602 20.4763 30.4159 20.3442 30.6172 20.1473L30.6684 20.096C30.8271 19.9372 31.0155 19.8112 31.2229 19.7252C31.4303 19.6392 31.6526 19.595 31.8771 19.595C32.1016 19.595 32.3239 19.6392 32.5312 19.7252C32.7386 19.8112 32.927 19.9372 33.0857 20.096C33.2445 20.2547 33.3705 20.4431 33.4565 20.6505C33.5425 20.8578 33.5867 21.0801 33.5867 21.3046C33.5867 21.5291 33.5425 21.7514 33.4565 21.9588C33.3705 22.1662 33.2445 22.3546 33.0857 22.5133L33.0345 22.5645C32.8375 22.7659 32.7054 23.0215 32.6552 23.2986C32.605 23.5757 32.6389 23.8615 32.7526 24.1191V24.1875C32.8609 24.4401 33.0406 24.6556 33.2698 24.8073C33.499 24.9591 33.7675 25.0405 34.0424 25.0416H34.1876C34.6407 25.0416 35.0752 25.2216 35.3956 25.542C35.7159 25.8624 35.8959 26.2969 35.8959 26.75C35.8959 27.203 35.7159 27.6376 35.3956 27.9579C35.0752 28.2783 34.6407 28.4583 34.1876 28.4583H34.1107C33.8358 28.4594 33.5673 28.5408 33.3381 28.6926C33.109 28.8444 32.9292 29.0598 32.8209 29.3125V29.3125Z" stroke="white" stroke-width="2" stroke-linecap="round" stroke-linejoin="round"/>
</g>
<defs>
<clipPath id="clip0_160_1059">
<rect width="20.5" height="20.5" fill="white" transform="translate(16.25 16.5)"/>
</clipPath>
</defs>
</svg>
