<svg viewBox="0 0 53 53" fill="none" xmlns="http://www.w3.org/2000/svg">
<path d="M19.0431 21.945L26.5 26.2585L33.9569 21.945M26.5 34.86V26.25M34.1875 29.6667V22.8333C34.1872 22.5338 34.1081 22.2395 33.9582 21.9802C33.8083 21.7208 33.5928 21.5054 33.3333 21.3556L27.3542 17.939C27.0945 17.789 26.7999 17.7101 26.5 17.7101C26.2001 17.7101 25.9055 17.789 25.6458 17.939L19.6667 21.3556C19.4072 21.5054 19.1917 21.7208 19.0418 21.9802C18.8919 22.2395 18.8128 22.5338 18.8125 22.8333V29.6667C18.8128 29.9662 18.8919 30.2605 19.0418 30.5198C19.1917 30.7792 19.4072 30.9946 19.6667 31.1444L25.6458 34.561C25.9055 34.711 26.2001 34.7899 26.5 34.7899C26.7999 34.7899 27.0945 34.711 27.3542 34.561L33.3333 31.1444C33.5928 30.9946 33.8083 30.7792 33.9582 30.5198C34.1081 30.2605 34.1872 29.9662 34.1875 29.6667Z" stroke="white" stroke-width="2" stroke-linecap="round" stroke-linejoin="round"/>
</svg>
