<svg width="53" height="53" viewBox="0 0 53 53" fill="none" xmlns="http://www.w3.org/2000/svg">
<g clip-path="url(#clip0_160_1058)">
<path d="M24.0143 23.6875C24.2151 23.1167 24.6115 22.6353 25.1332 22.3287C25.6549 22.0221 26.2684 21.91 26.8648 22.0123C27.4612 22.1146 28.0022 22.4247 28.392 22.8876C28.7817 23.3506 28.995 23.9365 28.9941 24.5417C28.9941 26.25 26.4316 27.1042 26.4316 27.1042M26.4999 30.5209H26.5085M35.0416 26.25C35.0416 30.9675 31.2174 34.7917 26.4999 34.7917C21.7825 34.7917 17.9583 30.9675 17.9583 26.25C17.9583 21.5326 21.7825 17.7084 26.4999 17.7084C31.2174 17.7084 35.0416 21.5326 35.0416 26.25Z" stroke="white" stroke-width="2" stroke-linecap="round" stroke-linejoin="round"/>
</g>
<defs>
<clipPath id="clip0_160_1058">
<rect width="20.5" height="20.5" fill="white" transform="translate(16.25 16)"/>
</clipPath>
</defs>
</svg>
